{"title":"The Tourist [Dual-Audio][Hindi-English]by TheAaax9","uid":6084002,"size":555269088,"categoryP":"video","categoryS":"movies","magnet":"?xt=urn:btih:7282d005e71de4db32ba8e9032a93c6340a60814&amp;dn=The+Tourist+%5BDual-Audio%5D%5BHindi-English%5Dby+TheAaax9&amp;tr=udp%3A%2F%2Ftracker.openbittorrent.com%3A80&amp;tr=udp%3A%2F%2Fopen.demonii.com%3A1337&amp;tr=udp%3A%2F%2Ftracker.coppersurfer.tk%3A6969&amp;tr=udp%3A%2F%2Fexodus.desync.com%3A6969","seeders":0,"leechers":1,"uploader":"TheAaax9","files":-1,"time":1294237518,"description":"\n                         $$TheAaax9$$\n\nmovie quality is better than sample\n\nScreen shots :-\n &lt;a href=&quot;\nhttp://shareimage.org/images/32tvl6ti6y1g0xznj4qp.jpg&quot; rel=&quot;nofollow&quot; target=&quot;_NEW&quot;&gt;\nhttp://shareimage.org/images/32tvl6ti6y1g0xznj4qp.jpg&lt;/a&gt;\n\nGeneral\nComplete name                    : The Tourist [Dual-Audio][Hindi-English]by TheAaax9.mkv\nFormat                           : Matroska\nFile size                        : 517 MiB\nDuration                         : 1h 35mn\nOverall bit rate                 : 753 Kbps\nMovie name                       : The Tourist [Dual-Audio][Hindi-English]by TheAaax9\nWriting application              : AVI-Mux GUI 1.17.8.3, Feb 16 201019:42:50\nWriting library                  : matroska muxer by Alexander Noe, build date Feb 16 2010\n\nVideo\nID                               : 1\nFormat                           : AVC\nFormat/Info                      : Advanced Video Codec\nDuration                         : 1h 35mn\nBit rate                         : 258 Kbps\nWidth                            : 704 pixels\nHeight                           : 302 pixels\nDisplay aspect ratio             : 2.35:1\nFrame rate                       : 25.000 fps\nResolution                       : 24 bits\nScan type                        : Progressive\nBits/(Pixel*Frame)               : 0.049\nStream size                      : 177 MiB (34%)\n\n\nAudio #1\nID                               : 2\nFormat                           : MPEG Audio\nDuration                         : 1h 35mn\nBit rate mode                    : Constant\nBit rate                         : 320 Kbps\nChannel(s)                       : 2 channels\nResolution                       : 16 bits\nVideo delay                      : -40ms\nStream size                      : 220 MiB (42%)\nTitle                            : TheAaax9\nWriting library                  : LAME3.98.2\nLanguage                         : Hindi\n\nAudio #2\nID                               : 3\nFormat                           : MPEG Audio\nCodec ID                         : A_MPEG/L3\nCodec ID/Hint                    : MP3\nDuration                         : 1h 35mn\nBit rate mode                    : Constant\nBit rate                         : 160 Kbps\nChannel(s)                       : 2 channels\nSampling rate                    : 44.1 KHz\nResolution                       : 16 bits\nVideo delay                      : -40ms\nStream size                      : 110 MiB (21%)\nTitle                            : TheAaax9\nLanguage                         : English\n\n                              $$TheAaax9$$\n\n","torrent":{"xt":"urn:btih:7282d005e71de4db32ba8e9032a93c6340a60814","amp;dn":"The+Tourist+%5BDual-Audio%5D%5BHindi-English%5Dby+TheAaax9","amp;tr":["udp%3A%2F%2Ftracker.openbittorrent.com%3A80","udp%3A%2F%2Fopen.demonii.com%3A1337","udp%3A%2F%2Ftracker.coppersurfer.tk%3A6969","udp%3A%2F%2Fexodus.desync.com%3A6969"],"infoHash":"7282d005e71de4db32ba8e9032a93c6340a60814","infoHashBuffer":{"type":"Buffer","data":[114,130,208,5,231,29,228,219,50,186,142,144,50,169,60,99,64,166,8,20]},"announce":[],"urlList":[]}}